<svg width="25" height="25" viewBox="0 0 25 25" fill="none" xmlns="http://www.w3.org/2000/svg">
<g clip-path="url(#clip0_3792_14568)">
<path d="M15.802 21.4776V14.5116H18.135L18.484 11.8036H15.802V10.0756C15.802 9.2916 16.02 8.7566 17.144 8.7566H18.578V6.3346C17.8838 6.26094 17.1861 6.22522 16.488 6.2276C14.421 6.2276 13.006 7.4896 13.006 9.8076V11.8036H10.668V14.5116H13.006V21.4776H4.40002C4.13481 21.4776 3.88045 21.3722 3.69292 21.1847C3.50538 20.9972 3.40002 20.7428 3.40002 20.4776V4.4776C3.40002 4.21238 3.50538 3.95803 3.69292 3.77049C3.88045 3.58296 4.13481 3.4776 4.40002 3.4776H20.4C20.6652 3.4776 20.9196 3.58296 21.1071 3.77049C21.2947 3.95803 21.4 4.21238 21.4 4.4776V20.4776C21.4 20.7428 21.2947 20.9972 21.1071 21.1847C20.9196 21.3722 20.6652 21.4776 20.4 21.4776H15.802Z" fill="#6A7C94"/>
</g>
<defs>
<clipPath id="clip0_3792_14568">
<rect width="24" height="24" fill="white" transform="translate(0.400024 0.4776)"/>
</clipPath>
</defs>
</svg>
